<svg viewBox="463.0809 220.841 363.8384 319.3443" width="5000" height="4388.5458489263365" xmlns="http://www.w3.org/2000/svg" xmlns:xlink="http://www.w3.org/1999/xlink" preserveAspectRatio="none"><defs></defs><style>.a6izo4zJpcolor {fill:#F3F3F3;fill-opacity:0.7;}.ad2MRnTn-G0filter-floo {flood-color:#80E172;flood-opacity:0.5;}.aLgOaV3zRcolors-0 {fill:#80E172;fill-opacity:1;}.companyName {fill:#E3E3E3;fill-opacity:1;}.icon3-str {stroke:#AAAAAA;stroke-opacity:1;}</style><defs>
      <filter
        x="556.4792"
        y="220.841"
        width="177.0417"
        height="196.6451"
        id="d2MRnTn-G"
        filterUnits="userSpaceOnUse"
        primitiveUnits="userSpaceOnUse"
        color-interpolation-filters="sRGB">
        <feMerge><feMergeNode in="SourceGraphic" /></feMerge>
      </filter></defs><defs></defs><g opacity="1" transform="rotate(0 588.4801 512.5853)">
<svg width="113.04" height="27.6" x="588.4801" y="512.5853" version="1.1" preserveAspectRatio="none" viewBox="0.12 -27.28 113.03999999999999 27.6">
  <g transform="matrix(1 0 0 1 0 0)" class="a6izo4zJpcolor"><path id="id-6izo4zJp6" d="M15.12-26.48L26.36 0L23.04 0L19.80-7.68L6.68-7.68L3.44 0L0.12 0L11.36-26.48L15.12-26.48ZM7.84-10.44L18.64-10.44L13.24-23.36L7.84-10.44Z M43.44-20.32L43.64-20.32L43.64-17.32L43.28-17.32Q40.04-17.32 38-14.72L38-14.72Q36.08-12.24 36.08-8.80L36.08-8.80L36.08 0L33.08 0L33.08-20L36.08-20L36.08-15.08Q37.04-18.20 40.24-19.68L40.24-19.68Q41.56-20.32 43.44-20.32L43.44-20.32Z M56.04 0L53.04 0L53.04-17.36L48.96-17.36L48.96-20L53.04-20L53.04-27.16L56.04-27.16L56.04-20L60.64-20L60.64-17.36L56.04-17.36L56.04 0Z M67.92 0L67.92-20L70.92-20L70.92 0L67.92 0ZM67.80-27.28L71.04-27.28L71.04-23.36L67.80-23.36L67.80-27.28Z M94.92-14.64L91.88-14.64Q91.48-17.76 86.86-17.76Q82.24-17.76 82.24-14.88L82.24-14.88Q82.24-13.68 83.22-13.06Q84.20-12.44 85.68-12.04Q87.16-11.64 88.90-11.30Q90.64-10.96 92.12-10.34Q93.60-9.72 94.58-8.64Q95.56-7.56 95.56-5.68L95.56-5.68Q95.56-2.76 93.36-1.22Q91.16 0.32 87.40 0.32L87.40 0.32Q83.40 0.32 81.04-1.68L81.04-1.68Q78.88-3.44 78.72-6.28L78.72-6.28L81.84-6.28Q82.12-3.52 84.96-2.56L84.96-2.56Q86-2.24 87.02-2.24Q88.04-2.24 88.92-2.36Q89.80-2.48 90.64-2.80L90.64-2.80Q92.56-3.56 92.56-5.40L92.56-5.40Q92.56-6.64 91.58-7.30Q90.60-7.96 89.12-8.38Q87.64-8.80 85.90-9.14Q84.16-9.48 82.68-10.08Q81.20-10.68 80.22-11.72Q79.24-12.76 79.24-14.60L79.24-14.60Q79.24-17.32 81.22-18.82Q83.20-20.32 87.08-20.32L87.08-20.32Q90.76-20.32 92.88-18.56L92.88-18.56Q94.64-17.08 94.92-14.64L94.92-14.64Z M108.56 0L105.56 0L105.56-17.36L101.48-17.36L101.48-20L105.56-20L105.56-27.16L108.56-27.16L108.56-20L113.16-20L113.16-17.36L108.56-17.36L108.56 0Z"/></g>
</svg>
</g><g opacity="1" transform="rotate(0 463.0809 417.4861)">
<svg width="363.8384" height="65" x="463.0809" y="417.4861" version="1.1" preserveAspectRatio="none" viewBox="2.9883 -30.0391 168.1446 30.0391">
  <g transform="matrix(1 0 0 1 0 0)" class="companyName"><path id="id-D6z1nYkh7" d="M17.91-14.00L32.30 0L25.10 0L13.67-11.45L10.10-11.45L10.10-16.56L13.67-16.56L25.10-28.01L32.30-28.01L17.91-14.00ZM8.07-28.01L8.07 0L2.99 0L2.99-28.01L8.07-28.01Z M56.54-14.12L56.54-6.99Q56.54-5.94 56.17-4.72Q55.80-3.50 54.97-2.45Q54.14-1.41 52.80-0.70Q51.46 0 49.55 0L49.55 0L40.39 0Q39.34 0 38.12-0.37Q36.89-0.74 35.85-1.57Q34.80-2.40 34.10-3.74Q33.40-5.08 33.40-6.99L33.40-6.99Q33.40-8.05 33.77-9.28Q34.14-10.51 34.97-11.55Q35.80-12.60 37.14-13.30Q38.48-14.00 40.39-14.00L40.39-14.00L49.55-14.00L49.55-9.16L40.39-9.16Q39.36-9.16 38.79-8.53Q38.22-7.89 38.22-6.95L38.22-6.95Q38.22-5.96 38.88-5.40Q39.53-4.84 40.43-4.84L40.43-4.84L49.55-4.84Q50.59-4.84 51.15-5.47Q51.72-6.09 51.72-7.03L51.72-7.03L51.72-14.12Q51.72-15.12 51.10-15.70Q50.49-16.29 49.55-16.29L49.55-16.29L38.40-16.29L38.40-21.11L49.55-21.11Q50.61-21.11 51.83-20.74Q53.05-20.37 54.09-19.54Q55.14-18.71 55.84-17.37Q56.54-16.04 56.54-14.12L56.54-14.12Z M70.16-5.08L70.16 0L67.89 0Q66.80 0 65.56-0.37Q64.32-0.74 63.24-1.59Q62.17-2.44 61.46-3.80Q60.76-5.16 60.76-7.13L60.76-7.13L60.76-30.04L65.84-30.04L65.84-7.13Q65.84-6.19 66.43-5.63Q67.01-5.08 67.89-5.08L67.89-5.08L70.16-5.08Z M95.21-14.12L95.21-6.99Q95.21-5.94 94.84-4.72Q94.47-3.50 93.64-2.45Q92.81-1.41 91.47-0.70Q90.14 0 88.22 0L88.22 0L79.06 0Q78.01 0 76.79-0.37Q75.57-0.74 74.52-1.57Q73.48-2.40 72.77-3.74Q72.07-5.08 72.07-6.99L72.07-6.99Q72.07-8.05 72.44-9.28Q72.81-10.51 73.64-11.55Q74.47-12.60 75.81-13.30Q77.15-14.00 79.06-14.00L79.06-14.00L88.22-14.00L88.22-9.16L79.06-9.16Q78.03-9.16 77.46-8.53Q76.89-7.89 76.89-6.95L76.89-6.95Q76.89-5.96 77.55-5.40Q78.20-4.84 79.10-4.84L79.10-4.84L88.22-4.84Q89.26-4.84 89.82-5.47Q90.39-6.09 90.39-7.03L90.39-7.03L90.39-14.12Q90.39-15.12 89.78-15.70Q89.16-16.29 88.22-16.29L88.22-16.29L77.07-16.29L77.07-21.11L88.22-21.11Q89.28-21.11 90.50-20.74Q91.72-20.37 92.76-19.54Q93.81-18.71 94.51-17.37Q95.21-16.04 95.21-14.12L95.21-14.12Z M112.40-11.52L124.36 0L117.03 0L106.80-9.88Q105.94-10.66 106.00-11.84L106.00-11.84Q106.04-12.38 106.28-12.86Q106.52-13.34 106.95-13.67L106.95-13.67L116.23-21.15L124.36-21.15L112.40-11.52ZM104.71-30.04L104.71 0L99.63 0L99.63-30.04L104.71-30.04Z M148.32-14.12L148.32-6.99Q148.32-5.94 147.95-4.72Q147.58-3.50 146.75-2.45Q145.92-1.41 144.58-0.70Q143.24 0 141.33 0L141.33 0L132.17 0Q131.11 0 129.89-0.37Q128.67-0.74 127.63-1.57Q126.58-2.40 125.88-3.74Q125.18-5.08 125.18-6.99L125.18-6.99Q125.18-8.05 125.55-9.28Q125.92-10.51 126.75-11.55Q127.58-12.60 128.92-13.30Q130.25-14.00 132.17-14.00L132.17-14.00L141.33-14.00L141.33-9.16L132.17-9.16Q131.13-9.16 130.57-8.53Q130-7.89 130-6.95L130-6.95Q130-5.96 130.65-5.40Q131.31-4.84 132.21-4.84L132.21-4.84L141.33-4.84Q142.36-4.84 142.93-5.47Q143.50-6.09 143.50-7.03L143.50-7.03L143.50-14.12Q143.50-15.12 142.88-15.70Q142.27-16.29 141.33-16.29L141.33-16.29L130.18-16.29L130.18-21.11L141.33-21.11Q142.38-21.11 143.60-20.74Q144.82-20.37 145.87-19.54Q146.91-18.71 147.62-17.37Q148.32-16.04 148.32-14.12L148.32-14.12Z M171.13-21.11L171.13-16.04L159.71-16.04Q158.67-16.04 158.14-15.52Q157.62-15 157.62-14.00L157.62-14.00L157.62 0L152.54 0L152.54-14.00Q152.54-15.31 152.87-16.35Q153.20-17.38 153.76-18.17Q154.32-18.96 155.04-19.52Q155.76-20.08 156.55-20.43Q157.34-20.78 158.15-20.95Q158.96-21.11 159.67-21.11L159.67-21.11L171.13-21.11Z"/></g>
</svg>
</g><g opacity="1" transform="rotate(0 556.4792 220.841)">
<svg width="177.0417" height="196.6451" x="556.4792" y="220.841" version="1.1" preserveAspectRatio="none" viewBox="9.481908798217772 5.900000095367432 79.95658874511719 88.80999755859375">
  <g transform="matrix(1 0 0 -1 0 100.60999774932861)"><defs><g id="id-LgOaV3zR0"><title>spirograph</title><path d="M81.65,50.87c-0.36-.21-0.73-0.39-1.1-0.56,0.37-.18.74-0.37,1.1-0.58a15.58,15.58,0,0,0,5.86-21l0.4-.6-0.72,0A15.58,15.58,0,0,0,66,22.71c-0.36.21-.71,0.44-1.05,0.68,0-.41.06-0.83,0.06-1.25A15.61,15.61,0,0,0,49.77,6.55L49.45,5.9l-0.32.65A15.61,15.61,0,0,0,33.85,22.14c0,0.42,0,.83.06,1.25-0.34-.24-0.69-0.47-1.05-0.68a15.58,15.58,0,0,0-21.14,5.44L11,28.1l0.4,0.6a15.61,15.61,0,0,0,5.86,21c0.36,0.21.73,0.4,1.1,0.57-0.37.18-.74,0.36-1.1,0.57a15.62,15.62,0,0,0-5.86,21l-0.4.6,0.72,0a15.49,15.49,0,0,0,9.3,7,15.68,15.68,0,0,0,4.06.54,15.51,15.51,0,0,0,7.78-2.1c0.36-.21.71-0.44,1.05-0.68,0,0.41-.06.83-0.06,1.25A15.61,15.61,0,0,0,49.13,94.06l0.32,0.65,0.32-.65A15.61,15.61,0,0,0,65.05,78.47c0-.42,0-0.83-0.06-1.25,0.34,0.24.69,0.47,1.05,0.68A15.51,15.51,0,0,0,73.82,80a15.68,15.68,0,0,0,4.06-.54,15.49,15.49,0,0,0,9.3-7l0.72,0-0.4-.6A15.62,15.62,0,0,0,81.65,50.87Zm-0.5-2a14.76,14.76,0,0,1-1.89.9l-0.71-.25L84,35.73l-1.51.43,4.34-6.51A14.61,14.61,0,0,1,81.15,48.87Zm0.52,14.3-5.36-8,1.39-3.48,4.67,11.71Zm-4.46,9.11L64.74,74.09l2.32-2.94,9.64,0.63ZM45.54,84.53l3.23-12.72,0.67-.56,0.67,0.56,3.23,12.72-3.91,7.92ZM22.2,71.77l9.64-.63,2.32,2.94L21.69,72.27Zm-5.66-8.41,4.67-11.71,1.39,3.48-5.36,8Zm0.69-25.92,5.36,8L21.21,49,16.54,37.24Zm4.46-9.11,12.47-1.81-2.32,2.94-9.64-.63ZM53.36,16.08L50.12,28.8l-0.67.56-0.67-.56L45.54,16.08l3.91-7.92ZM76.7,28.83l-9.64.63-2.32-2.94,12.47,1.81Zm5.66,8.41L77.69,49l-1.39-3.48,5.36-8ZM77.15,50.3l-0.06.16a14.53,14.53,0,0,1-7-.14l-0.06,0a14.69,14.69,0,0,1,3.86-.52,14.53,14.53,0,0,1,3.23.37Zm-2-4.95,1.48,3.7a15.66,15.66,0,0,0-8.24.71,14.55,14.55,0,0,1-2.33-1.17L67.22,42l1.38-.87,11.59-3.27ZM63.87,59.27l0.59,0.58-0.79-.41Zm0.59-1.21,0.75,0.47-0.79-.22Zm-1.07.3-0.68.57-1.94-1c0.14-.27.26-0.55,0.42-0.82s0.32-.53.49-0.78l1.86,1.18ZM50,67.27l0.24-.09,0,0.89Zm-0.55-.86-0.83-.31-0.09-2.19c0.31,0,.61,0,0.92,0s0.61,0,.92,0L50.28,66.1Zm-0.76,1.66,0-.89,0.24,0.09ZM34.48,58.31l-0.79.22,0.75-.47Zm0.55,1,0.2,0.16-0.79.41Zm0.47-.91-0.15-.88,1.86-1.18c0.17,0.25.33,0.51,0.49,0.78s0.28,0.54.42,0.82l-1.94,1ZM35,41.34l-0.59-.58,0.79,0.41Zm-0.59,1.21-0.75-.47,0.79,0.22Zm1.07-.3,0.68-.57,1.94,1c-0.14.27-.27,0.55-0.42,0.82s-0.33.52-.5,0.77l-1.85-1.17Zm13.4-8.92-0.24.09,0-.89Zm0.55,0.86,0.83,0.31,0.09,2.19c-0.31,0-.61,0-0.92,0s-0.61,0-.92,0l0.09-2.19Zm0.76-1.66,0,0.89L50,33.34ZM64.42,42.3l0.79-.22-0.75.47Zm-0.55-1-0.2-.16,0.79-.41Zm-0.47.91,0.15,0.88L61.7,44.3c-0.17-.26-0.34-0.51-0.5-0.77S60.91,43,60.78,42.7l1.94-1Zm0.33,1.94,0.52,3a14.5,14.5,0,0,1-2-2.11ZM59.89,57.44l-8.1-4.26,0.06-1.49,1.26-.8,7.74,4.88c-0.18.27-.36,0.53-0.52,0.81S60,57.15,59.89,57.44Zm-9-6.31-0.06,1.54L49.45,52l-1.37.72L48,51.13l-1.3-.82,1.3-.82,0.06-1.54,1.37,0.72,1.36-.72,0.06,1.54,1.3,0.82Zm-0.1,2.65-0.36,9.14c-0.32,0-.64,0-1,0s-0.64,0-1,0l-0.36-9.14,1.32-.69Zm-12.2,2.81C38.41,56.31,38.23,56,38,55.78l7.73-4.88L47,51.69l0.06,1.49L39,57.44C38.87,57.15,38.73,56.86,38.57,56.59ZM39,43.17l8.1,4.26L47,48.92l-1.26.8L38,44.83c0.18-.27.36-0.53,0.52-0.81S38.87,43.45,39,43.17Zm9.12,3.66,0.36-9.14c0.32,0,.64,0,1,0s0.64,0,1,0l0.36,9.14-1.32.69Zm3.73,2.08L51.8,47.42l8.1-4.26c0.14,0.29.28,0.58,0.44,0.85s0.34,0.54.52,0.81l-7.73,4.88Zm8.5-7.12A14.5,14.5,0,0,1,59.52,39l2.36,2Zm-2-3.74a15.46,15.46,0,0,0,1.12,4.21l-7.72,4.06L51.41,37.6a15.48,15.48,0,0,0,4.2-1.13L57.11,37Zm-7-1.45L51.3,34.88l2.87,1.06A14.46,14.46,0,0,1,51.37,36.6Zm-3.83,0a14.47,14.47,0,0,1-2.81-.66l2.87-1.06Zm-4.24-.13a15.48,15.48,0,0,0,4.2,1.13l-0.35,8.71-7.72-4.06a15.46,15.46,0,0,0,1.12-4.21l1.23-1Zm-4.75,5.32L37,41l2.36-2A14.5,14.5,0,0,1,38.54,41.79Zm-1.92,3.32a14.5,14.5,0,0,1-2,2.11l0.52-3Zm-2.23,3.61a15.46,15.46,0,0,0,3.08-3.07l7.37,4.66L37.47,55a15.46,15.46,0,0,0-3.08-3.07L34.12,50.3Zm2.24,6.77-1.47.93-0.52-3A14.48,14.48,0,0,1,36.63,55.49Zm1.91,3.33a14.5,14.5,0,0,1,.84,2.76l-2.36-2Zm2,3.74a15.46,15.46,0,0,0-1.12-4.21l7.72-4.06L47.49,63a15.48,15.48,0,0,0-4.2,1.13l-1.51-.56Zm7,1.45,0.07,1.72-2.87-1.06A14.47,14.47,0,0,1,47.53,64Zm3.83,0a14.47,14.47,0,0,1,2.81.66L51.3,65.73Zm4.24,0.13A15.48,15.48,0,0,0,51.41,63l0.35-8.71,7.72,4.06a15.46,15.46,0,0,0-1.12,4.21l-1.23,1Zm4.76-5.32,1.52,0.8-2.36,2A14.47,14.47,0,0,1,60.36,58.82Zm1.91-3.33a14.48,14.48,0,0,1,2-2.11l-0.52,3Zm2.24-3.6A15.48,15.48,0,0,0,61.43,55L54.05,50.3l7.37-4.66a15.46,15.46,0,0,0,3.08,3.07l0.27,1.58Zm0.14-8.28,1.44-.91-0.8,4.64Zm1.78-2.92-0.65.18,0.48-.47,0.2,0.07Zm-3.59-.21-2.91-2.42,4.41,1.63Zm-5.22-4.34-0.52-.43c0.41-.23.81-0.48,1.19-0.74,0,0.47-.05.94,0,1.4ZM51.26,33.8l-0.07-1.7,3.62,3Zm-1.64-3-0.17.65-0.17-.65,0.17-.14Zm-2,3-3.55,1.31,3.62-3Zm-6.37,2.35-0.62.23c0-.47,0-0.94,0-1.4,0.38,0.27.78,0.51,1.19,0.74Zm-5.22,4.34-1.5-.79L39,38.07Zm-3.42-.08,0.48,0.47-0.65-.18,0-.21Zm1.61,3.21-0.64,3.73-0.8-4.64ZM33.11,50.3L33,51c-0.4-.24-0.81-0.46-1.23-0.66,0.42-.2.83-0.42,1.23-0.66ZM34.25,57l-1.44.91,0.8-4.64Zm-1.78,2.92,0.65-.18-0.48.47-0.2-.07Zm3.59,0.21L39,62.54l-4.41-1.63Zm5.22,4.34,0.52,0.43c-0.41.23-.81,0.48-1.19,0.74,0-.47.05-0.94,0-1.4Zm6.37,2.35,0.07,1.7-3.62-3Zm1.64,3,0.17-.65,0.17,0.65L49.45,70Zm2-3,3.55-1.31-3.62,3Zm6.37-2.35,0.62-.23c0,0.47,0,.93,0,1.4-0.38-.27-0.78-0.51-1.19-0.74Zm5.22-4.34,1.5,0.79-4.41,1.63Zm3.42,0.08-0.48-.47,0.65,0.18,0,0.21ZM64.65,57l0.64-3.73,0.8,4.64Zm1.15-6.69,0.11-.66c0.4,0.24.81,0.46,1.24,0.66-0.42.2-.83,0.42-1.24,0.66Zm2.62-10.17-0.82-.3L67.74,39l9.4-9.16,8.81-.57L81,36.58ZM67,38.31l-1.44.76-6.29-2.32a14.56,14.56,0,0,1,.15-2.6,15.65,15.65,0,0,0,4.74-6.78l2.47,3.13,9-.59Zm-3.67-12,0.1,0.13a14.62,14.62,0,0,1-3.68,6.06V32.44a14.53,14.53,0,0,1,3.4-6.15ZM58,25.54L62,26.12a15.53,15.53,0,0,0-3.19,6.06c-0.13.47-.23,0.95-0.31,1.42A14.64,14.64,0,0,1,56.28,35l-5.15-4.28-0.06-1.62,3-11.67ZM54.42,16l0.18-.69,7.81,9.9-3.71-.54ZM47.83,29.13l-0.06,1.62L42.62,35a14.64,14.64,0,0,1-2.18-1.43c-0.08-.48-0.18-1-0.31-1.42a15.53,15.53,0,0,0-3.19-6.06l3.94-.57,4-8.09ZM35.6,26.31l0.17,0a14.53,14.53,0,0,1,3.4,6.15V32.5a14.62,14.62,0,0,1-3.68-6.06Zm4.61-1.68-3.71.54,7.81-9.9L44.48,16ZM32.3,30.49l2.47-3.13a15.66,15.66,0,0,0,4.74,6.78,14.56,14.56,0,0,1,.15,2.6l-6.29,2.32-1.44-.76L23.3,29.91ZM31.16,39l0.15,0.86-0.82.3L17.86,36.58,13,29.23l8.81,0.57ZM30.3,41.12L31.68,42l1.13,6.61a14.55,14.55,0,0,1-2.32,1.16c-0.46-.17-0.92-0.32-1.4-0.45A15.53,15.53,0,0,0,22.25,49l1.47-3.69-5-7.5ZM21.75,50.3l0.06-.15A14.54,14.54,0,0,1,25,49.79a14.69,14.69,0,0,1,3.86.52l-0.06,0a14.53,14.53,0,0,1-7,.14Zm2,4.95-1.47-3.68a15.4,15.4,0,0,0,2.78.26,15.73,15.73,0,0,0,4.06-.54c0.48-.13.94-0.28,1.4-0.45A14.65,14.65,0,0,1,32.81,52l-1.13,6.59-1.38.87L18.71,62.75Zm6.77,5.22,0.82,0.3-0.15.86-9.4,9.16L13,71.38,17.86,64Zm1.44,1.82,1.44-.76,6.29,2.32a14.56,14.56,0,0,1-.15,2.6,15.66,15.66,0,0,0-4.74,6.78L32.3,70.11l-9,.59Zm3.67,12-0.1-.13a14.62,14.62,0,0,1,3.68-6.06v0.06a14.53,14.53,0,0,1-3.4,6.15Zm5.27,0.77-3.94-.57a15.53,15.53,0,0,0,3.19-6.06c0.13-.47.23-0.95,0.31-1.42a14.63,14.63,0,0,1,2.18-1.43l5.15,4.28,0.06,1.62-3,11.67Zm3.61,9.58-0.18.7-7.81-9.9L40.21,76Zm6.59-13.16,0.06-1.62,5.15-4.28A14.63,14.63,0,0,1,58.46,67c0.08,0.48.18,1,.31,1.42A15.53,15.53,0,0,0,62,74.49L58,75.06l-4,8.09ZM63.3,74.3l-0.16,0a14.62,14.62,0,0,1-3.4-6.21,14.62,14.62,0,0,1,3.67,6.05ZM58.69,76l3.71-.54-7.81,9.9-0.18-.69Zm7.91-5.86-2.47,3.13a15.65,15.65,0,0,0-4.73-6.77,14.63,14.63,0,0,1-.15-2.61l6.28-2.32L67,62.29,75.6,70.7Zm1.14-8.47-0.15-.86,0.82-.3L81,64l4.9,7.34-8.81-.57Zm0.86-2.16-1.38-.87L66.09,52a14.64,14.64,0,0,1,2.31-1.18c0.46,0.17.92,0.32,1.4,0.45a15.69,15.69,0,0,0,4.06.54,15.42,15.42,0,0,0,2.78-.26l-1.47,3.68,5,7.5ZM66.54,23.57a14.52,14.52,0,0,1,7.28-2,14.69,14.69,0,0,1,3.8.5A14.49,14.49,0,0,1,86,28.22l-7.81.51,1.13-1.1L64.68,25.5c0.05-.24.09-0.49,0.14-0.74A14.76,14.76,0,0,1,66.54,23.57Zm-2.49-1.44a14.58,14.58,0,0,1-.17,2.08l-0.57.49L54.13,13.06l-0.39,1.52-3.46-7A14.61,14.61,0,0,1,64.05,22.14Zm-29.21,0A14.61,14.61,0,0,1,48.63,7.57l-3.46,7-0.39-1.53L35.58,24.71,35,24.22A14.58,14.58,0,0,1,34.85,22.14Zm-13.57,0a14.68,14.68,0,0,1,3.8-.5,14.52,14.52,0,0,1,7.28,2,14.76,14.76,0,0,1,1.73,1.19c0,0.25.08,0.5,0.14,0.74L19.54,27.63l1.13,1.1-7.81-.51A14.49,14.49,0,0,1,21.28,22.11ZM17.75,48.87A14.61,14.61,0,0,1,12,29.65l4.34,6.51-1.51-.43,5.49,13.78-0.72.25A14.77,14.77,0,0,1,17.75,48.87Zm0,2.87a14.66,14.66,0,0,1,1.86-.9l0.74,0.26L14.86,64.87l1.51-.43L12,71A14.61,14.61,0,0,1,17.75,51.74ZM32.36,77a14.57,14.57,0,0,1-19.5-4.65l7.81-.51L19.54,73l14.68,2.13c-0.05.24-.09,0.49-0.14,0.74A14.77,14.77,0,0,1,32.36,77Zm2.49,1.44A14.58,14.58,0,0,1,35,76.39l0.57-.49,9.19,11.65L45.16,86l3.46,7A14.61,14.61,0,0,1,34.85,78.47Zm29.21,0A14.61,14.61,0,0,1,50.28,93l3.46-7,0.39,1.53L63.31,75.9l0.57,0.49A14.58,14.58,0,0,1,64.05,78.47Zm13.57,0a14.37,14.37,0,0,1-12.81-2.65c0-.25-0.08-0.5-0.14-0.74L79.36,73l-1.13-1.1L86,72.38A14.49,14.49,0,0,1,77.62,78.5Zm4.9-14L84,64.87,78.55,51.1l0.74-.26A14.57,14.57,0,0,1,86.87,71Z"></path></g></defs><use class="aLgOaV3zRcolors-0" xlink:href="#id-LgOaV3zR0"></use></g>
</svg>
</g></svg>